<svg xmlns="http://www.w3.org/2000/svg" xmlns:xlink="http://www.w3.org/1999/xlink" width="518" zoomAndPan="magnify" viewBox="0 0 388.5 89.999999" height="120" preserveAspectRatio="xMidYMid meet" version="1.0"><defs><g/><clipPath id="a828f5e3de"><path d="M 0 0.0585938 L 388 0.0585938 L 388 89.941406 L 0 89.941406 Z M 0 0.0585938 " clip-rule="nonzero"/></clipPath><clipPath id="ebb098d121"><path d="M 11 0.0585938 L 83 0.0585938 L 83 23 L 11 23 Z M 11 0.0585938 " clip-rule="nonzero"/></clipPath><clipPath id="1e2e4c89a8"><path d="M 11 67 L 83 67 L 83 89.941406 L 11 89.941406 Z M 11 67 " clip-rule="nonzero"/></clipPath><clipPath id="79a0c2794b"><path d="M 104.507812 16.316406 L 388 16.316406 L 388 86.78125 L 104.507812 86.78125 Z M 104.507812 16.316406 " clip-rule="nonzero"/></clipPath></defs><g clip-path="url(#a828f5e3de)"><path fill="#ffffff" d="M 0 0.0585938 L 388 0.0585938 L 388 89.941406 L 0 89.941406 Z M 0 0.0585938 " fill-opacity="1" fill-rule="nonzero"/><path fill="#ffffff" d="M 0 0.0585938 L 388 0.0585938 L 388 89.941406 L 0 89.941406 Z M 0 0.0585938 " fill-opacity="1" fill-rule="nonzero"/></g><path fill="#fa776c" d="M 0 20.777344 C 0 14.957031 6.351562 11.359375 11.34375 14.355469 L 30.179688 25.65625 C 34.691406 28.363281 37.453125 33.238281 37.453125 38.5 L 37.453125 51.5 C 37.453125 56.761719 34.691406 61.636719 30.179688 64.34375 L 11.34375 75.644531 C 6.351562 78.640625 0 75.042969 0 69.222656 Z M 0 20.777344 " fill-opacity="1" fill-rule="nonzero"/><g clip-path="url(#ebb098d121)"><path fill="#624cf5" d="M 77.792969 0.0585938 C 81.757812 0.0585938 83.78125 4.824219 81.023438 7.675781 L 71.082031 17.960938 C 68.257812 20.878906 64.371094 22.527344 60.308594 22.527344 L 41.601562 22.527344 C 38.886719 22.527344 36.222656 21.789062 33.894531 20.394531 L 13.914062 8.40625 C 10.003906 6.0625 11.667969 0.0585938 16.226562 0.0585938 Z M 77.792969 0.0585938 " fill-opacity="1" fill-rule="nonzero"/></g><g clip-path="url(#1e2e4c89a8)"><path fill="#624cf5" d="M 77.792969 89.941406 C 81.757812 89.941406 83.78125 85.175781 81.023438 82.324219 L 71.082031 72.039062 C 68.257812 69.121094 64.371094 67.472656 60.308594 67.472656 L 41.601562 67.472656 C 38.886719 67.472656 36.222656 68.207031 33.894531 69.605469 L 13.914062 81.59375 C 10.003906 83.9375 11.667969 89.941406 16.226562 89.941406 Z M 77.792969 89.941406 " fill-opacity="1" fill-rule="nonzero"/></g><path fill="#fa776c" d="M 53.179688 33.765625 C 53.917969 33.765625 54.648438 33.835938 55.375 33.980469 C 56.097656 34.125 56.800781 34.335938 57.480469 34.621094 C 58.164062 34.902344 58.808594 35.25 59.421875 35.65625 C 60.035156 36.066406 60.605469 36.535156 61.125 37.054688 C 61.648438 37.578125 62.113281 38.144531 62.523438 38.757812 C 62.933594 39.371094 63.28125 40.019531 63.5625 40.699219 C 63.84375 41.382812 64.058594 42.085938 64.203125 42.808594 C 64.34375 43.53125 64.417969 44.261719 64.417969 45 C 64.417969 45.738281 64.34375 46.46875 64.203125 47.191406 C 64.058594 47.914062 63.84375 48.617188 63.5625 49.300781 C 63.28125 49.980469 62.933594 50.628906 62.523438 51.242188 C 62.113281 51.855469 61.648438 52.421875 61.125 52.945312 C 60.605469 53.464844 60.035156 53.933594 59.421875 54.34375 C 58.808594 54.75 58.164062 55.097656 57.480469 55.378906 C 56.800781 55.664062 56.097656 55.875 55.375 56.019531 C 54.648438 56.164062 53.917969 56.234375 53.179688 56.234375 C 52.445312 56.234375 51.714844 56.164062 50.988281 56.019531 C 50.265625 55.875 49.5625 55.664062 48.882812 55.378906 C 48.199219 55.097656 47.554688 54.75 46.9375 54.34375 C 46.324219 53.933594 45.757812 53.464844 45.238281 52.945312 C 44.714844 52.421875 44.25 51.855469 43.839844 51.242188 C 43.429688 50.628906 43.082031 49.980469 42.800781 49.300781 C 42.519531 48.617188 42.304688 47.914062 42.160156 47.191406 C 42.019531 46.46875 41.945312 45.738281 41.945312 45 C 41.945312 44.261719 42.019531 43.53125 42.160156 42.808594 C 42.304688 42.085938 42.519531 41.382812 42.800781 40.699219 C 43.082031 40.019531 43.429688 39.371094 43.839844 38.757812 C 44.25 38.144531 44.714844 37.578125 45.238281 37.054688 C 45.757812 36.535156 46.324219 36.066406 46.9375 35.65625 C 47.554688 35.25 48.199219 34.902344 48.882812 34.621094 C 49.5625 34.335938 50.265625 34.125 50.988281 33.980469 C 51.714844 33.835938 52.445312 33.765625 53.179688 33.765625 Z M 53.179688 33.765625 " fill-opacity="1" fill-rule="nonzero"/><path fill="#000000" d="M 123.046875 39.660156 L 147.277344 39.660156 L 147.277344 48.722656 L 123.046875 48.722656 Z M 123.910156 60.371094 L 151.304688 60.371094 L 151.304688 69.71875 L 112.332031 69.71875 L 112.332031 19.382812 L 150.371094 19.382812 L 150.371094 28.730469 L 123.910156 28.730469 Z M 169.929688 69.71875 L 153.679688 31.03125 L 165.257812 31.03125 L 178.777344 64.324219 L 173.023438 64.324219 L 187.042969 31.03125 L 197.832031 31.03125 L 181.507812 69.71875 Z M 220.554688 70.292969 C 216.144531 70.292969 212.261719 69.429688 208.90625 67.703125 C 205.597656 65.980469 203.03125 63.628906 201.210938 60.65625 C 199.390625 57.636719 198.476562 54.210938 198.476562 50.375 C 198.476562 46.492188 199.363281 43.066406 201.136719 40.09375 C 202.960938 37.070312 205.429688 34.722656 208.546875 33.046875 C 211.660156 31.320312 215.183594 30.457031 219.117188 30.457031 C 222.902344 30.457031 226.304688 31.273438 229.328125 32.902344 C 232.394531 34.484375 234.816406 36.785156 236.589844 39.804688 C 238.363281 42.777344 239.25 46.347656 239.25 50.519531 C 239.25 50.949219 239.226562 51.453125 239.175781 52.027344 C 239.128906 52.554688 239.082031 53.058594 239.035156 53.539062 L 207.609375 53.539062 L 207.609375 46.996094 L 233.136719 46.996094 L 228.824219 48.9375 C 228.824219 46.921875 228.414062 45.171875 227.601562 43.6875 C 226.785156 42.203125 225.660156 41.050781 224.222656 40.234375 C 222.78125 39.375 221.105469 38.941406 219.1875 38.941406 C 217.269531 38.941406 215.566406 39.375 214.082031 40.234375 C 212.644531 41.050781 211.515625 42.226562 210.703125 43.757812 C 209.886719 45.246094 209.480469 47.019531 209.480469 49.082031 L 209.480469 50.804688 C 209.480469 52.914062 209.933594 54.785156 210.847656 56.414062 C 211.804688 57.996094 213.125 59.21875 214.800781 60.082031 C 216.527344 60.898438 218.539062 61.304688 220.839844 61.304688 C 222.902344 61.304688 224.699219 60.992188 226.234375 60.371094 C 227.816406 59.746094 229.253906 58.8125 230.546875 57.566406 L 236.515625 64.039062 C 234.742188 66.050781 232.515625 67.609375 229.828125 68.710938 C 227.144531 69.765625 224.054688 70.292969 220.554688 70.292969 Z M 270.230469 30.457031 C 273.300781 30.457031 276.03125 31.078125 278.429688 32.328125 C 280.875 33.523438 282.792969 35.394531 284.183594 37.933594 C 285.570312 40.429688 286.265625 43.640625 286.265625 47.570312 L 286.265625 69.71875 L 275.050781 69.71875 L 275.050781 49.296875 C 275.050781 46.179688 274.355469 43.878906 272.964844 42.394531 C 271.621094 40.90625 269.703125 40.164062 267.210938 40.164062 C 265.4375 40.164062 263.832031 40.546875 262.394531 41.316406 C 261.003906 42.035156 259.902344 43.160156 259.085938 44.695312 C 258.320312 46.226562 257.9375 48.195312 257.9375 50.589844 L 257.9375 69.71875 L 246.71875 69.71875 L 246.71875 31.03125 L 257.433594 31.03125 L 257.433594 41.746094 L 255.417969 38.511719 C 256.808594 35.921875 258.796875 33.933594 261.386719 32.542969 C 263.976562 31.152344 266.925781 30.457031 270.230469 30.457031 Z M 312.253906 70.292969 C 307.699219 70.292969 304.152344 69.144531 301.613281 66.84375 C 299.070312 64.492188 297.800781 61.015625 297.800781 56.414062 L 297.800781 22.476562 L 309.019531 22.476562 L 309.019531 56.273438 C 309.019531 57.902344 309.449219 59.171875 310.3125 60.082031 C 311.175781 60.945312 312.351562 61.375 313.835938 61.375 C 315.609375 61.375 317.121094 60.898438 318.367188 59.9375 L 321.386719 67.847656 C 320.238281 68.664062 318.847656 69.285156 317.214844 69.71875 C 315.632812 70.101562 313.980469 70.292969 312.253906 70.292969 Z M 291.832031 40.523438 L 291.832031 31.894531 L 318.65625 31.894531 L 318.65625 40.523438 Z M 327.683594 69.71875 L 327.683594 16.363281 L 338.902344 16.363281 L 338.902344 69.71875 Z M 354.203125 84.242188 C 352.1875 84.242188 350.199219 83.933594 348.234375 83.308594 C 346.269531 82.683594 344.664062 81.824219 343.414062 80.71875 L 347.515625 72.738281 C 348.378906 73.503906 349.359375 74.105469 350.464844 74.535156 C 351.613281 74.96875 352.742188 75.183594 353.84375 75.183594 C 355.425781 75.183594 356.671875 74.800781 357.582031 74.03125 C 358.542969 73.3125 359.402344 72.089844 360.171875 70.367188 L 362.183594 65.621094 L 363.046875 64.398438 L 376.925781 31.03125 L 387.710938 31.03125 L 370.238281 72.089844 C 368.992188 75.207031 367.554688 77.652344 365.921875 79.425781 C 364.339844 81.199219 362.566406 82.445312 360.601562 83.164062 C 358.683594 83.882812 356.550781 84.242188 354.203125 84.242188 Z M 360.816406 71.226562 L 343.558594 31.03125 L 355.136719 31.03125 L 368.511719 63.390625 Z M 360.816406 71.226562 " fill-opacity="1" fill-rule="nonzero"/><g clip-path="url(#79a0c2794b)"><path fill="#ffffff" d="M 104.507812 16.316406 L 392.429688 16.316406 L 392.429688 86.78125 L 104.507812 86.78125 Z M 104.507812 16.316406 " fill-opacity="1" fill-rule="nonzero"/></g><g fill="#000000" fill-opacity="1"><g transform="translate(79.817592, 75.338556)"><g><path d="M 18.6875 -25.046875 L 18.6875 -9.4375 L 45.90625 -9.4375 L 45.90625 0 L 7.40625 0 L 7.40625 -57.03125 L 45.296875 -57.03125 L 45.296875 -47.59375 L 18.6875 -47.59375 L 18.6875 -34.25 L 41.9375 -34.25 L 41.9375 -25.046875 Z M 18.6875 -25.046875 "/></g></g></g><g fill="#000000" fill-opacity="1"><g transform="translate(128.851252, 75.338556)"><g><path d="M 29.609375 0 L 16.734375 0 L 0.8125 -43.03125 L 12.125 -43.03125 L 22.828125 -12.359375 L 23.71875 -12.359375 L 34.4375 -43.03125 L 45.484375 -43.03125 Z M 29.609375 0 "/></g></g></g><g fill="#000000" fill-opacity="1"><g transform="translate(175.115309, 75.338556)"><g><path d="M 42.515625 -19.078125 L 14.859375 -19.078125 C 15.171875 -15.328125 16.238281 -12.597656 18.0625 -10.890625 C 19.882812 -9.191406 22.367188 -8.34375 25.515625 -8.34375 C 27.984375 -8.34375 29.984375 -8.804688 31.515625 -9.734375 C 33.054688 -10.660156 34.289062 -12.054688 35.21875 -13.921875 L 36.046875 -13.921875 L 43.21875 -9.328125 C 41.8125 -6.304688 39.691406 -3.859375 36.859375 -1.984375 C 34.023438 -0.117188 30.242188 0.8125 25.515625 0.8125 C 21.066406 0.8125 17.222656 -0.03125 13.984375 -1.71875 C 10.742188 -3.40625 8.242188 -5.921875 6.484375 -9.265625 C 4.734375 -12.609375 3.859375 -16.6875 3.859375 -21.5 C 3.859375 -26.382812 4.78125 -30.503906 6.625 -33.859375 C 8.476562 -37.210938 10.976562 -39.710938 14.125 -41.359375 C 17.269531 -43.015625 20.804688 -43.84375 24.734375 -43.84375 C 30.816406 -43.84375 35.476562 -42.226562 38.71875 -39 C 41.957031 -35.78125 43.578125 -31.050781 43.578125 -24.8125 C 43.578125 -22.550781 43.5 -20.796875 43.34375 -19.546875 Z M 33.234375 -26.0625 C 33.128906 -29.332031 32.367188 -31.710938 30.953125 -33.203125 C 29.535156 -34.703125 27.460938 -35.453125 24.734375 -35.453125 C 19.273438 -35.453125 16.0625 -32.320312 15.09375 -26.0625 Z M 33.234375 -26.0625 "/></g></g></g><g fill="#000000" fill-opacity="1"><g transform="translate(221.886476, 75.338556)"><g><path d="M 6.203125 0 L 6.203125 -43.03125 L 16.578125 -43.03125 L 16.578125 -36.703125 L 17.390625 -36.515625 C 20.078125 -41.398438 24.421875 -43.84375 30.421875 -43.84375 C 35.390625 -43.84375 39.035156 -42.488281 41.359375 -39.78125 C 43.691406 -37.082031 44.859375 -33.144531 44.859375 -27.96875 L 44.859375 0 L 34.0625 0 L 34.0625 -26.640625 C 34.0625 -29.503906 33.488281 -31.566406 32.34375 -32.828125 C 31.195312 -34.085938 29.363281 -34.71875 26.84375 -34.71875 C 23.75 -34.71875 21.335938 -33.710938 19.609375 -31.703125 C 17.878906 -29.703125 17.015625 -26.5625 17.015625 -22.28125 L 17.015625 0 Z M 6.203125 0 "/></g></g></g><g fill="#000000" fill-opacity="1"><g transform="translate(272.285431, 75.338556)"><g><path d="M 25.078125 0.8125 C 20.921875 0.8125 17.242188 -0.0507812 14.046875 -1.78125 C 10.847656 -3.507812 8.347656 -6.050781 6.546875 -9.40625 C 4.753906 -12.757812 3.859375 -16.789062 3.859375 -21.5 C 3.859375 -26.226562 4.753906 -30.269531 6.546875 -33.625 C 8.347656 -36.976562 10.832031 -39.519531 14 -41.25 C 17.175781 -42.976562 20.804688 -43.84375 24.890625 -43.84375 C 33.960938 -43.84375 39.773438 -40.554688 42.328125 -33.984375 L 34.90625 -28.671875 L 34.09375 -28.671875 C 33.207031 -30.703125 32.054688 -32.207031 30.640625 -33.1875 C 29.222656 -34.175781 27.304688 -34.671875 24.890625 -34.671875 C 21.765625 -34.671875 19.332031 -33.59375 17.59375 -31.4375 C 15.851562 -29.28125 14.984375 -25.96875 14.984375 -21.5 C 14.984375 -17.070312 15.863281 -13.769531 17.625 -11.59375 C 19.394531 -9.425781 21.878906 -8.34375 25.078125 -8.34375 C 27.421875 -8.34375 29.40625 -8.972656 31.03125 -10.234375 C 32.65625 -11.492188 33.816406 -13.3125 34.515625 -15.6875 L 35.34375 -15.765625 L 43.03125 -11.546875 C 41.9375 -7.898438 39.910156 -4.925781 36.953125 -2.625 C 34.003906 -0.332031 30.046875 0.8125 25.078125 0.8125 Z M 25.078125 0.8125 "/></g></g></g><g fill="#000000" fill-opacity="1"><g transform="translate(316.638084, 75.338556)"><g><path d="M 11.578125 -48.171875 C 9.628906 -48.171875 8.046875 -48.757812 6.828125 -49.9375 C 5.609375 -51.125 5 -52.65625 5 -54.53125 C 5 -56.375 5.609375 -57.890625 6.828125 -59.078125 C 8.046875 -60.265625 9.628906 -60.859375 11.578125 -60.859375 C 12.878906 -60.859375 14.035156 -60.582031 15.046875 -60.03125 C 16.066406 -59.488281 16.851562 -58.742188 17.40625 -57.796875 C 17.96875 -56.847656 18.25 -55.757812 18.25 -54.53125 C 18.25 -53.3125 17.96875 -52.21875 17.40625 -51.25 C 16.851562 -50.289062 16.066406 -49.535156 15.046875 -48.984375 C 14.035156 -48.441406 12.878906 -48.171875 11.578125 -48.171875 Z M 6.203125 0 L 6.203125 -43.03125 L 17.015625 -43.03125 L 17.015625 0 Z M 6.203125 0 "/></g></g></g><g fill="#000000" fill-opacity="1"><g transform="translate(339.809121, 75.338556)"><g><path d="M 16.78125 0.8125 C 14.019531 0.8125 11.625 0.304688 9.59375 -0.703125 C 7.5625 -1.710938 6 -3.195312 4.90625 -5.15625 C 3.820312 -7.125 3.28125 -9.488281 3.28125 -12.25 C 3.28125 -14.800781 3.820312 -16.941406 4.90625 -18.671875 C 6 -20.398438 7.691406 -21.816406 9.984375 -22.921875 C 12.273438 -24.023438 15.265625 -24.875 18.953125 -25.46875 C 21.535156 -25.882812 23.492188 -26.335938 24.828125 -26.828125 C 26.171875 -27.328125 27.078125 -27.890625 27.546875 -28.515625 C 28.015625 -29.140625 28.25 -29.929688 28.25 -30.890625 C 28.25 -32.273438 27.765625 -33.328125 26.796875 -34.046875 C 25.835938 -34.773438 24.238281 -35.140625 22 -35.140625 C 19.601562 -35.140625 17.328125 -34.609375 15.171875 -33.546875 C 13.015625 -32.484375 11.144531 -31.078125 9.5625 -29.328125 L 8.78125 -29.328125 L 4.25 -36.15625 C 6.4375 -38.582031 9.101562 -40.46875 12.25 -41.8125 C 15.394531 -43.164062 18.828125 -43.84375 22.546875 -43.84375 C 28.242188 -43.84375 32.363281 -42.632812 34.90625 -40.21875 C 37.457031 -37.800781 38.734375 -34.367188 38.734375 -29.921875 L 38.734375 -11.234375 C 38.734375 -9.304688 39.578125 -8.34375 41.265625 -8.34375 C 41.921875 -8.34375 42.5625 -8.460938 43.1875 -8.703125 L 43.734375 -8.546875 L 44.515625 -1.015625 C 43.910156 -0.617188 43.070312 -0.296875 42 -0.046875 C 40.9375 0.191406 39.769531 0.3125 38.5 0.3125 C 35.925781 0.3125 33.914062 -0.179688 32.46875 -1.171875 C 31.03125 -2.160156 30 -3.707031 29.375 -5.8125 L 28.546875 -5.890625 C 26.441406 -1.421875 22.519531 0.8125 16.78125 0.8125 Z M 20.203125 -7.25 C 22.703125 -7.25 24.695312 -8.085938 26.1875 -9.765625 C 27.6875 -11.441406 28.4375 -13.78125 28.4375 -16.78125 L 28.4375 -21.140625 L 27.703125 -21.296875 C 27.046875 -20.773438 26.191406 -20.335938 25.140625 -19.984375 C 24.085938 -19.640625 22.570312 -19.296875 20.59375 -18.953125 C 18.257812 -18.566406 16.578125 -17.898438 15.546875 -16.953125 C 14.515625 -16.003906 14 -14.65625 14 -12.90625 C 14 -11.0625 14.546875 -9.65625 15.640625 -8.6875 C 16.734375 -7.726562 18.253906 -7.25 20.203125 -7.25 Z M 20.203125 -7.25 "/></g></g></g></svg>